<svg aria-hidden="true" style="position: absolute; width: 0; height: 0; overflow: hidden;" version="1.1" xmlns="http://www.w3.org/2000/svg" xmlns:xlink="http://www.w3.org/1999/xlink">
<defs>
<symbol id="icon-restaurant_menu" viewBox="0 0 24 24">
<title>restaurant_menu</title>
<path d="M14.859 11.531l-1.453 1.453 6.891 6.891-1.406 1.406-6.891-6.891-6.891 6.891-1.406-1.406 9.75-9.75c-0.703-1.547-0.188-3.703 1.406-5.297 1.922-1.922 4.641-2.25 6.094-0.797s1.125 4.219-0.797 6.141c-1.594 1.594-3.75 2.063-5.297 1.359zM8.109 13.359l-4.219-4.219c-1.547-1.547-1.547-4.078 0-5.625l7.031 6.984z"></path>
</symbol>
<symbol id="icon-restaurant" viewBox="0 0 24 24">
<title>restaurant</title>
<path d="M15.984 6c0-1.781 2.25-3.984 5.016-3.984v19.969h-2.484v-7.969h-2.531v-8.016zM11.016 9v-6.984h1.969v6.984c0 2.109-1.641 3.844-3.75 3.984v9h-2.484v-9c-2.109-0.141-3.75-1.875-3.75-3.984v-6.984h2.016v6.984h1.969v-6.984h2.016v6.984h2.016z"></path>
</symbol>
<symbol id="icon-food" viewBox="0 0 32 32">
<title>food</title>
<path d="M29.5 21h-2.691c-0.045-0.239-0.1-0.473-0.16-0.706l4.799-2.399c0.494-0.247 0.693-0.848 0.447-1.342-0.248-0.494-0.846-0.692-1.342-0.447l-4.578 2.288c-1.746-3.768-5.555-6.394-9.975-6.394-5.382 0-9.865 3.888-10.809 9h-2.691c-1.378 0-2.5 1.121-2.5 2.5 0 0.49 0.18 0.963 0.505 1.329l3.495 3.932v0.739c0 1.379 1.122 2.5 2.5 2.5h19c1.379 0 2.5-1.121 2.5-2.5v-0.739l3.494-3.932c0.326-0.366 0.506-0.839 0.506-1.329 0-1.379-1.121-2.5-2.5-2.5zM25.799 21h-0.562l0.498-0.25c0.019 0.084 0.046 0.165 0.064 0.25zM16 13c4.029 0 7.5 2.4 9.082 5.841l-0.891 0.445c-1.416-3.115-4.546-5.286-8.191-5.286-4.282 0-7.859 2.993-8.77 7h-1.028c0.929-4.559 4.969-8 9.798-8zM20.576 21c-0.773-1.763-2.531-3-4.576-3s-3.802 1.237-4.576 3h-1.074c0.826-2.326 3.043-4 5.65-4 2.465 0 4.588 1.496 5.508 3.627l-0.932 0.373zM16 20c-0.883 0-1.67 0.391-2.22 1h-1.224c0.694-1.189 1.97-2 3.444-2 1.473 0 2.75 0.811 3.443 2h-1.225c-0.548-0.609-1.335-1-2.218-1zM16 16c-3.165 0-5.842 2.112-6.705 5h-1.032c0.892-3.444 4.017-6 7.737-6 3.246 0 6.043 1.948 7.295 4.734l-0.893 0.446c-1.088-2.457-3.547-4.18-6.402-4.18zM26 28v1.5c0 0.276-0.225 0.5-0.5 0.5h-19c-0.276 0-0.5-0.224-0.5-0.5v-1.5l-4-4.5c0-0.276 0.224-0.5 0.5-0.5h27c0.275 0 0.5 0.224 0.5 0.5l-4 4.5zM7.977 11.712c-0.007-0.014-0.012-0.027-0.018-0.042-0.519-1.253-0.003-2.482 0.463-3.591 0.441-1.052 0.832-1.984 0.428-2.893-0.002-0.004-0.003-0.008-0.005-0.012-0.001-0.003-0.002-0.006-0.003-0.009-0.001-0.002-0.001-0.004-0.001-0.006-0.020-0.053-0.032-0.109-0.032-0.169 0-0.27 0.219-0.49 0.49-0.49 0.208 0 0.385 0.13 0.456 0.313 0.558 1.271 0.051 2.521-0.422 3.647-0.438 1.042-0.794 2.010-0.419 2.892 0.002 0.007 0.002 0.013 0 0.020 0.011 0.040 0.018 0.082 0.018 0.125 0 0.277-0.225 0.503-0.502 0.503-0.194 0-0.36-0.11-0.443-0.27-0.001 0-0.002 0-0.002 0-0.003-0.006-0.005-0.012-0.008-0.018zM20.154 11.566c-0.006-0.013-0.011-0.027-0.016-0.040-0.519-1.253-0.004-2.483 0.461-3.592 0.442-1.052 0.832-1.984 0.428-2.893 0-0.004-0.002-0.008-0.004-0.012s-0.002-0.006-0.004-0.009c0-0.002 0-0.004 0-0.006-0.019-0.053-0.033-0.109-0.033-0.169 0-0.27 0.22-0.49 0.49-0.49 0.209 0 0.385 0.129 0.457 0.313 0.558 1.271 0.051 2.521-0.422 3.647-0.438 1.042-0.793 2.010-0.42 2.892 0.004 0.007 0.004 0.013 0.002 0.020 0.010 0.040 0.018 0.082 0.018 0.125 0 0.277-0.227 0.503-0.504 0.503-0.193 0-0.359-0.111-0.443-0.271h-0.002c-0.002-0.006-0.004-0.012-0.008-0.018zM15.019 7.212c-0.007-0.014-0.012-0.027-0.019-0.041-0.52-1.253-0.004-2.483 0.462-3.592 0.441-1.052 0.832-1.984 0.428-2.893-0.001-0.004-0.003-0.008-0.004-0.012-0.001-0.003-0.002-0.006-0.003-0.009-0.001-0.002-0.001-0.004-0.001-0.006-0.020-0.053-0.032-0.109-0.032-0.169 0-0.27 0.22-0.49 0.49-0.49 0.209 0 0.385 0.13 0.457 0.314 0.558 1.271 0.051 2.521-0.422 3.647-0.438 1.042-0.794 2.010-0.419 2.892 0.002 0.007 0.002 0.013 0 0.020 0.011 0.040 0.018 0.082 0.018 0.125 0 0.277-0.225 0.503-0.502 0.503-0.193 0-0.359-0.111-0.443-0.271-0.001 0-0.002 0-0.002 0-0.003-0.006-0.005-0.012-0.008-0.018z"></path>
</symbol>
<symbol id="icon-search" viewBox="0 0 20 20">
<title>search</title>
<path d="M12.9 14.32c-1.34 1.049-3.050 1.682-4.908 1.682-4.418 0-8-3.582-8-8s3.582-8 8-8c4.418 0 8 3.582 8 8 0 1.858-0.633 3.567-1.695 4.925l0.013-0.018 5.35 5.33-1.42 1.42-5.33-5.34zM8 14c3.314 0 6-2.686 6-6s-2.686-6-6-6v0c-3.314 0-6 2.686-6 6s2.686 6 6 6v0z"></path>
</symbol>
<symbol id="icon-search2" viewBox="0 0 32 32">
<title>search2</title>
<path d="M31.008 27.231l-7.58-6.447c-0.784-0.705-1.622-1.029-2.299-0.998 1.789-2.096 2.87-4.815 2.87-7.787 0-6.627-5.373-12-12-12s-12 5.373-12 12 5.373 12 12 12c2.972 0 5.691-1.081 7.787-2.87-0.031 0.677 0.293 1.515 0.998 2.299l6.447 7.58c1.104 1.226 2.907 1.33 4.007 0.23s0.997-2.903-0.23-4.007zM12 20c-4.418 0-8-3.582-8-8s3.582-8 8-8 8 3.582 8 8-3.582 8-8 8z"></path>
</symbol>
<symbol id="icon-spoon-knife" viewBox="0 0 32 32">
<title>spoon-knife</title>
<path d="M7 0c-3.314 0-6 3.134-6 7 0 3.31 1.969 6.083 4.616 6.812l-0.993 16.191c-0.067 1.098 0.778 1.996 1.878 1.996h1c1.1 0 1.945-0.898 1.878-1.996l-0.993-16.191c2.646-0.729 4.616-3.502 4.616-6.812 0-3.866-2.686-7-6-7zM27.167 0l-1.667 10h-1.25l-0.833-10h-0.833l-0.833 10h-1.25l-1.667-10h-0.833v13c0 0.552 0.448 1 1 1h2.604l-0.982 16.004c-0.067 1.098 0.778 1.996 1.878 1.996h1c1.1 0 1.945-0.898 1.878-1.996l-0.982-16.004h2.604c0.552 0 1-0.448 1-1v-13h-0.833z"></path>
</symbol>
<symbol id="icon-fire" viewBox="0 0 32 32">
<title>fire</title>
<path d="M10.031 32c-2.133-4.438-0.997-6.981 0.642-9.376 1.795-2.624 2.258-5.221 2.258-5.221s1.411 1.834 0.847 4.703c2.493-2.775 2.963-7.196 2.587-8.889 5.635 3.938 8.043 12.464 4.798 18.783 17.262-9.767 4.294-24.38 2.036-26.027 0.753 1.646 0.895 4.433-0.625 5.785-2.573-9.759-8.937-11.759-8.937-11.759 0.753 5.033-2.728 10.536-6.084 14.648-0.118-2.007-0.243-3.392-1.298-5.312-0.237 3.646-3.023 6.617-3.777 10.27-1.022 4.946 0.765 8.568 7.555 12.394z"></path>
</symbol>
<symbol id="icon-bin" viewBox="0 0 32 32">
<title>bin</title>
<path d="M4 10v20c0 1.1 0.9 2 2 2h18c1.1 0 2-0.9 2-2v-20h-22zM10 28h-2v-14h2v14zM14 28h-2v-14h2v14zM18 28h-2v-14h2v14zM22 28h-2v-14h2v14z"></path>
<path d="M26.5 4h-6.5v-2.5c0-0.825-0.675-1.5-1.5-1.5h-7c-0.825 0-1.5 0.675-1.5 1.5v2.5h-6.5c-0.825 0-1.5 0.675-1.5 1.5v2.5h26v-2.5c0-0.825-0.675-1.5-1.5-1.5zM18 4h-6v-1.975h6v1.975z"></path>
</symbol>
<symbol id="icon-eye" viewBox="0 0 32 32">
<title>eye</title>
<path d="M16 6c-6.979 0-13.028 4.064-16 10 2.972 5.936 9.021 10 16 10s13.027-4.064 16-10c-2.972-5.936-9.021-10-16-10zM23.889 11.303c1.88 1.199 3.473 2.805 4.67 4.697-1.197 1.891-2.79 3.498-4.67 4.697-2.362 1.507-5.090 2.303-7.889 2.303s-5.527-0.796-7.889-2.303c-1.88-1.199-3.473-2.805-4.67-4.697 1.197-1.891 2.79-3.498 4.67-4.697 0.122-0.078 0.246-0.154 0.371-0.228-0.311 0.854-0.482 1.776-0.482 2.737 0 4.418 3.582 8 8 8s8-3.582 8-8c0-0.962-0.17-1.883-0.482-2.737 0.124 0.074 0.248 0.15 0.371 0.228v0zM16 13c0 1.657-1.343 3-3 3s-3-1.343-3-3 1.343-3 3-3 3 1.343 3 3z"></path>
</symbol>
<symbol id="icon-sun" viewBox="0 0 32 32">
<title>sun</title>
<path d="M16 26c1.105 0 2 0.895 2 2v2c0 1.105-0.895 2-2 2s-2-0.895-2-2v-2c0-1.105 0.895-2 2-2zM16 6c-1.105 0-2-0.895-2-2v-2c0-1.105 0.895-2 2-2s2 0.895 2 2v2c0 1.105-0.895 2-2 2zM30 14c1.105 0 2 0.895 2 2s-0.895 2-2 2h-2c-1.105 0-2-0.895-2-2s0.895-2 2-2h2zM6 16c0 1.105-0.895 2-2 2h-2c-1.105 0-2-0.895-2-2s0.895-2 2-2h2c1.105 0 2 0.895 2 2zM25.899 23.071l1.414 1.414c0.781 0.781 0.781 2.047 0 2.828s-2.047 0.781-2.828 0l-1.414-1.414c-0.781-0.781-0.781-2.047 0-2.828s2.047-0.781 2.828 0zM6.101 8.929l-1.414-1.414c-0.781-0.781-0.781-2.047 0-2.828s2.047-0.781 2.828 0l1.414 1.414c0.781 0.781 0.781 2.047 0 2.828s-2.047 0.781-2.828 0zM25.899 8.929c-0.781 0.781-2.047 0.781-2.828 0s-0.781-2.047 0-2.828l1.414-1.414c0.781-0.781 2.047-0.781 2.828 0s0.781 2.047 0 2.828l-1.414 1.414zM6.101 23.071c0.781-0.781 2.047-0.781 2.828 0s0.781 2.047 0 2.828l-1.414 1.414c-0.781 0.781-2.047 0.781-2.828 0s-0.781-2.047 0-2.828l1.414-1.414z"></path>
<path d="M16 8c-4.418 0-8 3.582-8 8s3.582 8 8 8c4.418 0 8-3.582 8-8s-3.582-8-8-8zM16 21c-2.761 0-5-2.239-5-5s2.239-5 5-5 5 2.239 5 5-2.239 5-5 5z"></path>
</symbol>
<symbol id="icon-star-empty" viewBox="0 0 32 32">
<title>star-empty</title>
<path d="M32 12.408l-11.056-1.607-4.944-10.018-4.944 10.018-11.056 1.607 8 7.798-1.889 11.011 9.889-5.199 9.889 5.199-1.889-11.011 8-7.798zM16 23.547l-6.983 3.671 1.334-7.776-5.65-5.507 7.808-1.134 3.492-7.075 3.492 7.075 7.807 1.134-5.65 5.507 1.334 7.776-6.983-3.671z"></path>
</symbol>
<symbol id="icon-heart" viewBox="0 0 32 32">
<title>heart</title>
<path d="M23.6 2c-3.363 0-6.258 2.736-7.599 5.594-1.342-2.858-4.237-5.594-7.601-5.594-4.637 0-8.4 3.764-8.4 8.401 0 9.433 9.516 11.906 16.001 21.232 6.13-9.268 15.999-12.1 15.999-21.232 0-4.637-3.763-8.401-8.4-8.401z"></path>
</symbol>
<symbol id="icon-happy" viewBox="0 0 32 32">
<title>happy</title>
<path d="M16 32c8.837 0 16-7.163 16-16s-7.163-16-16-16-16 7.163-16 16 7.163 16 16 16zM16 3c7.18 0 13 5.82 13 13s-5.82 13-13 13-13-5.82-13-13 5.82-13 13-13zM16 18.711c3.623 0 7.070-0.963 10-2.654-0.455 5.576-4.785 9.942-10 9.942s-9.544-4.371-10-9.947c2.93 1.691 6.377 2.658 10 2.658zM8 11c0-1.657 0.895-3 2-3s2 1.343 2 3c0 1.657-0.895 3-2 3s-2-1.343-2-3zM20 11c0-1.657 0.895-3 2-3s2 1.343 2 3c0 1.657-0.895 3-2 3s-2-1.343-2-3z"></path>
</symbol>
<symbol id="icon-cross" viewBox="0 0 32 32">
<title>cross</title>
<path d="M31.708 25.708c-0-0-0-0-0-0l-9.708-9.708 9.708-9.708c0-0 0-0 0-0 0.105-0.105 0.18-0.227 0.229-0.357 0.133-0.356 0.057-0.771-0.229-1.057l-4.586-4.586c-0.286-0.286-0.702-0.361-1.057-0.229-0.13 0.048-0.252 0.124-0.357 0.228 0 0-0 0-0 0l-9.708 9.708-9.708-9.708c-0-0-0-0-0-0-0.105-0.104-0.227-0.18-0.357-0.228-0.356-0.133-0.771-0.057-1.057 0.229l-4.586 4.586c-0.286 0.286-0.361 0.702-0.229 1.057 0.049 0.13 0.124 0.252 0.229 0.357 0 0 0 0 0 0l9.708 9.708-9.708 9.708c-0 0-0 0-0 0-0.104 0.105-0.18 0.227-0.229 0.357-0.133 0.355-0.057 0.771 0.229 1.057l4.586 4.586c0.286 0.286 0.702 0.361 1.057 0.229 0.13-0.049 0.252-0.124 0.357-0.229 0-0 0-0 0-0l9.708-9.708 9.708 9.708c0 0 0 0 0 0 0.105 0.105 0.227 0.18 0.357 0.229 0.356 0.133 0.771 0.057 1.057-0.229l4.586-4.586c0.286-0.286 0.362-0.702 0.229-1.057-0.049-0.13-0.124-0.252-0.229-0.357z"></path>
</symbol>
</defs>
</svg>
